<mxfile host="app.diagrams.net" modified="2022-06-07T01:24:49.878Z" agent="5.0 (Windows NT 10.0; Win64; x64) AppleWebKit/537.36 (KHTML, like Gecko) Chrome/102.0.0.0 Safari/537.36" etag="kkydhhsdS08t_S5z5ooM" version="19.0.1" type="github">
  <diagram name="Page-1" id="e7e014a7-5840-1c2e-5031-d8a46d1fe8dd">
    <mxGraphModel dx="764" dy="628" grid="1" gridSize="10" guides="1" tooltips="1" connect="1" arrows="1" fold="1" page="1" pageScale="1" pageWidth="1169" pageHeight="826" background="none" math="0" shadow="0">
      <root>
        <mxCell id="0" />
        <mxCell id="1" parent="0" />
        <mxCell id="4dxTQKNpNGe2ACc0uITw-41" value="" style="ellipse;html=1;shape=startState;fillColor=#000000;strokeColor=#ff0000;" vertex="1" parent="1">
          <mxGeometry x="205" y="20" width="30" height="30" as="geometry" />
        </mxCell>
        <mxCell id="4dxTQKNpNGe2ACc0uITw-42" value="" style="edgeStyle=orthogonalEdgeStyle;html=1;verticalAlign=bottom;endArrow=open;endSize=8;strokeColor=#ff0000;rounded=0;entryX=0.5;entryY=0;entryDx=0;entryDy=0;" edge="1" source="4dxTQKNpNGe2ACc0uITw-41" parent="1" target="4dxTQKNpNGe2ACc0uITw-44">
          <mxGeometry relative="1" as="geometry">
            <mxPoint x="350" y="170" as="targetPoint" />
          </mxGeometry>
        </mxCell>
        <mxCell id="4dxTQKNpNGe2ACc0uITw-51" value="" style="edgeStyle=orthogonalEdgeStyle;rounded=0;orthogonalLoop=1;jettySize=auto;html=1;" edge="1" parent="1" source="4dxTQKNpNGe2ACc0uITw-44" target="4dxTQKNpNGe2ACc0uITw-48">
          <mxGeometry relative="1" as="geometry" />
        </mxCell>
        <mxCell id="4dxTQKNpNGe2ACc0uITw-88" value="Confirmação" style="edgeLabel;html=1;align=center;verticalAlign=middle;resizable=0;points=[];" vertex="1" connectable="0" parent="4dxTQKNpNGe2ACc0uITw-51">
          <mxGeometry x="-0.6484" y="2" relative="1" as="geometry">
            <mxPoint as="offset" />
          </mxGeometry>
        </mxCell>
        <mxCell id="4dxTQKNpNGe2ACc0uITw-69" value="" style="edgeStyle=orthogonalEdgeStyle;rounded=0;orthogonalLoop=1;jettySize=auto;html=1;" edge="1" parent="1" source="4dxTQKNpNGe2ACc0uITw-44" target="4dxTQKNpNGe2ACc0uITw-67">
          <mxGeometry relative="1" as="geometry" />
        </mxCell>
        <mxCell id="4dxTQKNpNGe2ACc0uITw-87" value="Cancelamento" style="edgeLabel;html=1;align=center;verticalAlign=middle;resizable=0;points=[];" vertex="1" connectable="0" parent="4dxTQKNpNGe2ACc0uITw-69">
          <mxGeometry x="-0.2195" y="-1" relative="1" as="geometry">
            <mxPoint as="offset" />
          </mxGeometry>
        </mxCell>
        <mxCell id="4dxTQKNpNGe2ACc0uITw-44" value="PreInscricao" style="swimlane;fontStyle=1;align=center;verticalAlign=top;childLayout=stackLayout;horizontal=1;startSize=26;horizontalStack=0;resizeParent=1;resizeParentMax=0;resizeLast=0;collapsible=1;marginBottom=0;" vertex="1" parent="1">
          <mxGeometry x="140" y="80" width="160" height="34" as="geometry" />
        </mxCell>
        <mxCell id="4dxTQKNpNGe2ACc0uITw-46" value="" style="line;strokeWidth=1;fillColor=none;align=left;verticalAlign=middle;spacingTop=-1;spacingLeft=3;spacingRight=3;rotatable=0;labelPosition=right;points=[];portConstraint=eastwest;" vertex="1" parent="4dxTQKNpNGe2ACc0uITw-44">
          <mxGeometry y="26" width="160" height="8" as="geometry" />
        </mxCell>
        <mxCell id="4dxTQKNpNGe2ACc0uITw-56" value="" style="edgeStyle=orthogonalEdgeStyle;rounded=0;orthogonalLoop=1;jettySize=auto;html=1;" edge="1" parent="1" source="4dxTQKNpNGe2ACc0uITw-48" target="4dxTQKNpNGe2ACc0uITw-54">
          <mxGeometry relative="1" as="geometry">
            <Array as="points">
              <mxPoint x="350" y="290" />
              <mxPoint x="350" y="290" />
            </Array>
          </mxGeometry>
        </mxCell>
        <mxCell id="4dxTQKNpNGe2ACc0uITw-80" value="Trancamento" style="edgeLabel;html=1;align=center;verticalAlign=middle;resizable=0;points=[];" vertex="1" connectable="0" parent="4dxTQKNpNGe2ACc0uITw-56">
          <mxGeometry x="-0.1942" y="-4" relative="1" as="geometry">
            <mxPoint as="offset" />
          </mxGeometry>
        </mxCell>
        <mxCell id="4dxTQKNpNGe2ACc0uITw-59" value="" style="edgeStyle=orthogonalEdgeStyle;rounded=0;orthogonalLoop=1;jettySize=auto;html=1;" edge="1" parent="1" source="4dxTQKNpNGe2ACc0uITw-48" target="4dxTQKNpNGe2ACc0uITw-57">
          <mxGeometry relative="1" as="geometry" />
        </mxCell>
        <mxCell id="4dxTQKNpNGe2ACc0uITw-86" value="Conclusão" style="edgeLabel;html=1;align=center;verticalAlign=middle;resizable=0;points=[];" vertex="1" connectable="0" parent="4dxTQKNpNGe2ACc0uITw-59">
          <mxGeometry x="0.1438" y="3" relative="1" as="geometry">
            <mxPoint as="offset" />
          </mxGeometry>
        </mxCell>
        <mxCell id="4dxTQKNpNGe2ACc0uITw-48" value="Inscrito" style="swimlane;fontStyle=1;align=center;verticalAlign=top;childLayout=stackLayout;horizontal=1;startSize=26;horizontalStack=0;resizeParent=1;resizeParentMax=0;resizeLast=0;collapsible=1;marginBottom=0;fillColor=rgb(42, 42, 42);strokeColor=rgb(240, 240, 240);fontColor=rgb(240, 240, 240);" vertex="1" parent="1">
          <mxGeometry x="270" y="240" width="160" height="34" as="geometry" />
        </mxCell>
        <mxCell id="4dxTQKNpNGe2ACc0uITw-50" value="" style="line;strokeWidth=1;fillColor=none;align=left;verticalAlign=middle;spacingTop=-1;spacingLeft=3;spacingRight=3;rotatable=0;labelPosition=right;points=[];portConstraint=eastwest;" vertex="1" parent="4dxTQKNpNGe2ACc0uITw-48">
          <mxGeometry y="26" width="160" height="8" as="geometry" />
        </mxCell>
        <mxCell id="4dxTQKNpNGe2ACc0uITw-82" style="edgeStyle=orthogonalEdgeStyle;rounded=0;orthogonalLoop=1;jettySize=auto;html=1;exitX=1;exitY=0.5;exitDx=0;exitDy=0;entryX=1;entryY=0.5;entryDx=0;entryDy=0;" edge="1" parent="1" source="4dxTQKNpNGe2ACc0uITw-54" target="4dxTQKNpNGe2ACc0uITw-48">
          <mxGeometry relative="1" as="geometry">
            <Array as="points">
              <mxPoint x="520" y="430" />
              <mxPoint x="520" y="257" />
            </Array>
          </mxGeometry>
        </mxCell>
        <mxCell id="4dxTQKNpNGe2ACc0uITw-83" value="Reabertura" style="edgeLabel;html=1;align=center;verticalAlign=middle;resizable=0;points=[];" vertex="1" connectable="0" parent="4dxTQKNpNGe2ACc0uITw-82">
          <mxGeometry x="0.0652" y="-4" relative="1" as="geometry">
            <mxPoint as="offset" />
          </mxGeometry>
        </mxCell>
        <mxCell id="4dxTQKNpNGe2ACc0uITw-84" style="edgeStyle=orthogonalEdgeStyle;rounded=0;orthogonalLoop=1;jettySize=auto;html=1;exitX=0;exitY=0.5;exitDx=0;exitDy=0;entryX=0.5;entryY=1;entryDx=0;entryDy=0;" edge="1" parent="1" source="4dxTQKNpNGe2ACc0uITw-54" target="4dxTQKNpNGe2ACc0uITw-74">
          <mxGeometry relative="1" as="geometry" />
        </mxCell>
        <mxCell id="4dxTQKNpNGe2ACc0uITw-54" value="Trancado" style="swimlane;fontStyle=1;align=center;verticalAlign=top;childLayout=stackLayout;horizontal=1;startSize=26;horizontalStack=0;resizeParent=1;resizeParentMax=0;resizeLast=0;collapsible=1;marginBottom=0;fillColor=rgb(42, 42, 42);strokeColor=rgb(240, 240, 240);fontColor=rgb(240, 240, 240);" vertex="1" parent="1">
          <mxGeometry x="270" y="413" width="160" height="34" as="geometry" />
        </mxCell>
        <mxCell id="4dxTQKNpNGe2ACc0uITw-55" value="" style="line;strokeWidth=1;fillColor=none;align=left;verticalAlign=middle;spacingTop=-1;spacingLeft=3;spacingRight=3;rotatable=0;labelPosition=right;points=[];portConstraint=eastwest;" vertex="1" parent="4dxTQKNpNGe2ACc0uITw-54">
          <mxGeometry y="26" width="160" height="8" as="geometry" />
        </mxCell>
        <mxCell id="4dxTQKNpNGe2ACc0uITw-85" style="edgeStyle=orthogonalEdgeStyle;rounded=0;orthogonalLoop=1;jettySize=auto;html=1;exitX=1;exitY=0.5;exitDx=0;exitDy=0;entryX=0.5;entryY=1;entryDx=0;entryDy=0;" edge="1" parent="1" source="4dxTQKNpNGe2ACc0uITw-57" target="4dxTQKNpNGe2ACc0uITw-74">
          <mxGeometry relative="1" as="geometry">
            <Array as="points">
              <mxPoint x="190" y="430" />
              <mxPoint x="220" y="430" />
            </Array>
          </mxGeometry>
        </mxCell>
        <mxCell id="4dxTQKNpNGe2ACc0uITw-57" value="Concluido" style="swimlane;fontStyle=1;align=center;verticalAlign=top;childLayout=stackLayout;horizontal=1;startSize=26;horizontalStack=0;resizeParent=1;resizeParentMax=0;resizeLast=0;collapsible=1;marginBottom=0;fillColor=rgb(42, 42, 42);strokeColor=rgb(240, 240, 240);fontColor=rgb(240, 240, 240);" vertex="1" parent="1">
          <mxGeometry x="30" y="410" width="160" height="34" as="geometry" />
        </mxCell>
        <mxCell id="4dxTQKNpNGe2ACc0uITw-58" value="" style="line;strokeWidth=1;fillColor=none;align=left;verticalAlign=middle;spacingTop=-1;spacingLeft=3;spacingRight=3;rotatable=0;labelPosition=right;points=[];portConstraint=eastwest;" vertex="1" parent="4dxTQKNpNGe2ACc0uITw-57">
          <mxGeometry y="26" width="160" height="8" as="geometry" />
        </mxCell>
        <mxCell id="4dxTQKNpNGe2ACc0uITw-73" style="edgeStyle=orthogonalEdgeStyle;rounded=0;orthogonalLoop=1;jettySize=auto;html=1;exitX=0.5;exitY=0;exitDx=0;exitDy=0;entryX=0.5;entryY=1;entryDx=0;entryDy=0;" edge="1" parent="1" source="4dxTQKNpNGe2ACc0uITw-67" target="4dxTQKNpNGe2ACc0uITw-71">
          <mxGeometry relative="1" as="geometry" />
        </mxCell>
        <mxCell id="4dxTQKNpNGe2ACc0uITw-67" value="Cancelado" style="swimlane;fontStyle=1;align=center;verticalAlign=top;childLayout=stackLayout;horizontal=1;startSize=26;horizontalStack=0;resizeParent=1;resizeParentMax=0;resizeLast=0;collapsible=1;marginBottom=0;fillColor=rgb(42, 42, 42);strokeColor=rgb(240, 240, 240);fontColor=rgb(240, 240, 240);" vertex="1" parent="1">
          <mxGeometry x="505" y="80" width="160" height="34" as="geometry" />
        </mxCell>
        <mxCell id="4dxTQKNpNGe2ACc0uITw-68" value="" style="line;strokeWidth=1;fillColor=none;align=left;verticalAlign=middle;spacingTop=-1;spacingLeft=3;spacingRight=3;rotatable=0;labelPosition=right;points=[];portConstraint=eastwest;" vertex="1" parent="4dxTQKNpNGe2ACc0uITw-67">
          <mxGeometry y="26" width="160" height="8" as="geometry" />
        </mxCell>
        <mxCell id="4dxTQKNpNGe2ACc0uITw-71" value="" style="ellipse;html=1;shape=endState;fillColor=#000000;strokeColor=#ff0000;" vertex="1" parent="1">
          <mxGeometry x="570" y="20" width="30" height="30" as="geometry" />
        </mxCell>
        <mxCell id="4dxTQKNpNGe2ACc0uITw-74" value="" style="ellipse;html=1;shape=endState;fillColor=#000000;strokeColor=#ff0000;" vertex="1" parent="1">
          <mxGeometry x="205" y="300" width="30" height="30" as="geometry" />
        </mxCell>
      </root>
    </mxGraphModel>
  </diagram>
</mxfile>
